<?xml version="1.0" encoding="iso-8859-1"?>
<!-- Generator: Adobe Illustrator 19.0.0, SVG Export Plug-In . SVG Version: 6.00 Build 0)  -->
<svg version="1.1" id="Layer_1" xmlns="http://www.w3.org/2000/svg" xmlns:xlink="http://www.w3.org/1999/xlink" x="0px" y="0px"
	 viewBox="0 0 511.999 511.999" style="enable-background:new 0 0 511.999 511.999;" xml:space="preserve">
<g>
	<g>
		<path d="M95.479,280.451v201.072H416.52V280.451H95.479z M401.282,310.928H306.64v15.238h94.642v140.119H110.717V295.689h290.564
			V310.928z"/>
	</g>
</g>
<g>
	<g>
		<path d="M384.894,249.971c20.489-27.557,31.625-60.956,31.625-95.661v-7.619H263.619v-3.224c0-10.933,8.894-19.827,19.827-19.827
			h92.409c19.335,0,35.066-15.73,35.066-35.065v-3.224h1.835c11.369,0,20.618-9.248,20.618-20.617V20.617
			C433.371,9.248,424.123,0,412.753,0h-18.907c-11.369,0-20.618,9.248-20.618,20.617v44.116c0,11.369,9.248,20.617,20.618,20.617
			h1.836v3.224c0,10.933-8.895,19.827-19.828,19.827h-92.409c-19.334,0-35.065,15.73-35.065,35.065v3.224H95.479v7.619
			c0,34.706,11.137,68.105,31.626,95.661H67.088v15.238h72.822h47.649v-15.238h-40.895c-21.532-24.583-34.054-55.49-35.749-88.042
			h290.168c-1.694,32.553-14.215,63.459-35.747,88.042h-157.46v15.238h164.215h72.821v-15.238H384.894z M393.846,70.112
			c-2.966,0.001-5.38-2.412-5.38-5.378V20.617c0-2.966,2.414-5.379,5.38-5.379h18.907c2.966,0,5.38,2.413,5.38,5.379v44.116
			c0,2.966-2.414,5.379-5.38,5.379H393.846z"/>
	</g>
</g>
<g>
	<g>
		<path d="M256.001,345.174c-19.747,0-35.813,16.065-35.813,35.813s16.065,35.812,35.813,35.812
			c19.746,0,35.811-16.065,35.811-35.812C291.811,361.24,275.748,345.174,256.001,345.174z M256.001,401.561
			c-11.345,0-20.574-9.229-20.574-20.573c0-11.345,9.229-20.574,20.574-20.574c11.344,0,20.573,9.229,20.573,20.574
			C276.573,392.331,267.345,401.561,256.001,401.561z"/>
	</g>
</g>
<g>
	<g>
		<rect x="67.088" y="496.761" width="377.823" height="15.238"/>
	</g>
</g>
<g>
</g>
<g>
</g>
<g>
</g>
<g>
</g>
<g>
</g>
<g>
</g>
<g>
</g>
<g>
</g>
<g>
</g>
<g>
</g>
<g>
</g>
<g>
</g>
<g>
</g>
<g>
</g>
<g>
</g>
</svg>
